<svg width="80" height="80" viewBox="0 0 80 80" fill="none" xmlns="http://www.w3.org/2000/svg">
<g clip-path="url(#clip0_79_264)">
<path d="M66.6667 33.3334V23.3334C66.6667 19.6667 63.6667 16.6667 60 16.6667H20C16.3334 16.6667 13.3334 19.6667 13.3334 23.3334V33.3334C9.66669 33.3334 6.66669 36.3334 6.66669 40.0001V56.6667H11.1L13.3334 63.3334H16.6667L18.9 56.6667H61.1334L63.3334 63.3334H66.6667L68.9 56.6667H73.3334V40.0001C73.3334 36.3334 70.3334 33.3334 66.6667 33.3334ZM36.6667 33.3334H20V23.3334H36.6667V33.3334ZM60 33.3334H43.3334V23.3334H60V33.3334Z" fill="#8C8173"/>
</g>
<defs>
<clipPath id="clip0_79_264">
<rect width="80" height="80" fill="white"/>
</clipPath>
</defs>
</svg>
